<?xml version="1.0"?>
<svg xmlns="http://www.w3.org/2000/svg" viewBox="0 0 1280 640" width="1280" height="640">
  <defs>
    <linearGradient id="bg-catppuccin-latte" x1="0" y1="0" x2="0" y2="1">
      <stop offset="0" stop-color="#eff1f5"></stop>
      <stop offset="1" stop-color="#e6e9ef"></stop>
    </linearGradient>
    <radialGradient id="glow-catppuccin-latte" cx="0%" cy="100%" r="70%">
      <stop offset="0%" stop-color="#bcc0cc" stop-opacity="0.55"></stop>
      <stop offset="100%" stop-color="#bcc0cc" stop-opacity="0"></stop>
    </radialGradient>
    <linearGradient id="accent-catppuccin-latte" x1="0" y1="0" x2="1" y2="0">
      <stop offset="0" stop-color="#40a02b"></stop>
      <stop offset="1" stop-color="#8839ef"></stop>
    </linearGradient>
    <radialGradient id="cubeglow-catppuccin-latte" cx="50%" cy="50%" r="50%">
      <stop offset="0%" stop-color="#40a02b" stop-opacity="0.22"></stop>
      <stop offset="25%" stop-color="#40a02b" stop-opacity="0.121"></stop>
      <stop offset="55%" stop-color="#40a02b" stop-opacity="0.0396"></stop>
      <stop offset="100%" stop-color="#40a02b" stop-opacity="0"></stop>
    </radialGradient>
  </defs>
  <rect width="1280" height="640" fill="url(#bg-catppuccin-latte)"></rect>
  <g stroke="rgba(64,160,43,0.30)" stroke-width="1"><line x1="123" y1="128" x2="133" y2="128"></line><line x1="128" y1="123" x2="128" y2="133"></line></g><g stroke="rgba(64,160,43,0.30)" stroke-width="1"><line x1="123" y1="256" x2="133" y2="256"></line><line x1="128" y1="251" x2="128" y2="261"></line></g><g stroke="rgba(64,160,43,0.30)" stroke-width="1"><line x1="123" y1="384" x2="133" y2="384"></line><line x1="128" y1="379" x2="128" y2="389"></line></g><g stroke="rgba(64,160,43,0.30)" stroke-width="1"><line x1="123" y1="512" x2="133" y2="512"></line><line x1="128" y1="507" x2="128" y2="517"></line></g><g stroke="rgba(64,160,43,0.30)" stroke-width="1"><line x1="251" y1="128" x2="261" y2="128"></line><line x1="256" y1="123" x2="256" y2="133"></line></g><g stroke="rgba(64,160,43,0.30)" stroke-width="1"><line x1="251" y1="256" x2="261" y2="256"></line><line x1="256" y1="251" x2="256" y2="261"></line></g><g stroke="rgba(64,160,43,0.30)" stroke-width="1"><line x1="251" y1="384" x2="261" y2="384"></line><line x1="256" y1="379" x2="256" y2="389"></line></g><g stroke="rgba(64,160,43,0.30)" stroke-width="1"><line x1="251" y1="512" x2="261" y2="512"></line><line x1="256" y1="507" x2="256" y2="517"></line></g><g stroke="rgba(64,160,43,0.30)" stroke-width="1"><line x1="379" y1="128" x2="389" y2="128"></line><line x1="384" y1="123" x2="384" y2="133"></line></g><g stroke="rgba(64,160,43,0.30)" stroke-width="1"><line x1="379" y1="256" x2="389" y2="256"></line><line x1="384" y1="251" x2="384" y2="261"></line></g><g stroke="rgba(64,160,43,0.30)" stroke-width="1"><line x1="379" y1="384" x2="389" y2="384"></line><line x1="384" y1="379" x2="384" y2="389"></line></g><g stroke="rgba(64,160,43,0.30)" stroke-width="1"><line x1="379" y1="512" x2="389" y2="512"></line><line x1="384" y1="507" x2="384" y2="517"></line></g><g stroke="rgba(64,160,43,0.30)" stroke-width="1"><line x1="507" y1="128" x2="517" y2="128"></line><line x1="512" y1="123" x2="512" y2="133"></line></g><g stroke="rgba(64,160,43,0.30)" stroke-width="1"><line x1="507" y1="256" x2="517" y2="256"></line><line x1="512" y1="251" x2="512" y2="261"></line></g><g stroke="rgba(64,160,43,0.30)" stroke-width="1"><line x1="507" y1="384" x2="517" y2="384"></line><line x1="512" y1="379" x2="512" y2="389"></line></g><g stroke="rgba(64,160,43,0.30)" stroke-width="1"><line x1="507" y1="512" x2="517" y2="512"></line><line x1="512" y1="507" x2="512" y2="517"></line></g><g stroke="rgba(64,160,43,0.30)" stroke-width="1"><line x1="635" y1="128" x2="645" y2="128"></line><line x1="640" y1="123" x2="640" y2="133"></line></g><g stroke="rgba(64,160,43,0.30)" stroke-width="1"><line x1="635" y1="256" x2="645" y2="256"></line><line x1="640" y1="251" x2="640" y2="261"></line></g><g stroke="rgba(64,160,43,0.30)" stroke-width="1"><line x1="635" y1="384" x2="645" y2="384"></line><line x1="640" y1="379" x2="640" y2="389"></line></g><g stroke="rgba(64,160,43,0.30)" stroke-width="1"><line x1="635" y1="512" x2="645" y2="512"></line><line x1="640" y1="507" x2="640" y2="517"></line></g><g stroke="rgba(64,160,43,0.30)" stroke-width="1"><line x1="763" y1="128" x2="773" y2="128"></line><line x1="768" y1="123" x2="768" y2="133"></line></g><g stroke="rgba(64,160,43,0.30)" stroke-width="1"><line x1="763" y1="256" x2="773" y2="256"></line><line x1="768" y1="251" x2="768" y2="261"></line></g><g stroke="rgba(64,160,43,0.30)" stroke-width="1"><line x1="763" y1="384" x2="773" y2="384"></line><line x1="768" y1="379" x2="768" y2="389"></line></g><g stroke="rgba(64,160,43,0.30)" stroke-width="1"><line x1="763" y1="512" x2="773" y2="512"></line><line x1="768" y1="507" x2="768" y2="517"></line></g><g stroke="rgba(64,160,43,0.30)" stroke-width="1"><line x1="891" y1="128" x2="901" y2="128"></line><line x1="896" y1="123" x2="896" y2="133"></line></g><g stroke="rgba(64,160,43,0.30)" stroke-width="1"><line x1="891" y1="256" x2="901" y2="256"></line><line x1="896" y1="251" x2="896" y2="261"></line></g><g stroke="rgba(64,160,43,0.30)" stroke-width="1"><line x1="891" y1="384" x2="901" y2="384"></line><line x1="896" y1="379" x2="896" y2="389"></line></g><g stroke="rgba(64,160,43,0.30)" stroke-width="1"><line x1="891" y1="512" x2="901" y2="512"></line><line x1="896" y1="507" x2="896" y2="517"></line></g><g stroke="rgba(64,160,43,0.30)" stroke-width="1"><line x1="1019" y1="128" x2="1029" y2="128"></line><line x1="1024" y1="123" x2="1024" y2="133"></line></g><g stroke="rgba(64,160,43,0.30)" stroke-width="1"><line x1="1019" y1="256" x2="1029" y2="256"></line><line x1="1024" y1="251" x2="1024" y2="261"></line></g><g stroke="rgba(64,160,43,0.30)" stroke-width="1"><line x1="1019" y1="384" x2="1029" y2="384"></line><line x1="1024" y1="379" x2="1024" y2="389"></line></g><g stroke="rgba(64,160,43,0.30)" stroke-width="1"><line x1="1019" y1="512" x2="1029" y2="512"></line><line x1="1024" y1="507" x2="1024" y2="517"></line></g><g stroke="rgba(64,160,43,0.30)" stroke-width="1"><line x1="1147" y1="128" x2="1157" y2="128"></line><line x1="1152" y1="123" x2="1152" y2="133"></line></g><g stroke="rgba(64,160,43,0.30)" stroke-width="1"><line x1="1147" y1="256" x2="1157" y2="256"></line><line x1="1152" y1="251" x2="1152" y2="261"></line></g><g stroke="rgba(64,160,43,0.30)" stroke-width="1"><line x1="1147" y1="384" x2="1157" y2="384"></line><line x1="1152" y1="379" x2="1152" y2="389"></line></g><g stroke="rgba(64,160,43,0.30)" stroke-width="1"><line x1="1147" y1="512" x2="1157" y2="512"></line><line x1="1152" y1="507" x2="1152" y2="517"></line></g>
  <rect width="1280" height="640" fill="url(#glow-catppuccin-latte)"></rect>
  <g stroke="#7a8a72" stroke-width="2" fill="none">
    <path d="M 32 64 L 32 32 L 64 32"></path>
    <path d="M 1216 32 L 1248 32 L 1248 64"></path>
    <path d="M 32 576 L 32 608 L 64 608"></path>
    <path d="M 1216 608 L 1248 608 L 1248 576"></path>
  </g>
  <circle cx="197" cy="326" r="200" fill="url(#cubeglow-catppuccin-latte)"></circle>
  <g transform="translate(92,210) scale(1.05)">
    <polygon points="100,10 190,55 100,100 10,55" fill="#ffffff" stroke="#4c4f69" stroke-width="1.5" stroke-linejoin="miter"></polygon>
    <polygon points="10,55 100,100 100,210 10,165" fill="#bcc0cc" stroke="#4c4f69" stroke-width="1.5" stroke-linejoin="miter"></polygon>
    <polygon points="190,55 100,100 100,210 190,165" fill="#dce0e8" stroke="#4c4f69" stroke-width="1.5" stroke-linejoin="miter"></polygon>
  </g>
  <g transform="translate(380,110)"><rect x="0" y="0" width="28" height="28" fill="#4c4f69"></rect><rect x="28" y="0" width="28" height="28" fill="#4c4f69"></rect><rect x="56" y="0" width="28" height="28" fill="#4c4f69"></rect><rect x="84" y="0" width="28" height="28" fill="#4c4f69"></rect><rect x="0" y="28" width="28" height="28" fill="#4c4f69"></rect><rect x="112" y="28" width="28" height="28" fill="#4c4f69"></rect><rect x="0" y="56" width="28" height="28" fill="#4c4f69"></rect><rect x="28" y="56" width="28" height="28" fill="#4c4f69"></rect><rect x="56" y="56" width="28" height="28" fill="#4c4f69"></rect><rect x="84" y="56" width="28" height="28" fill="#4c4f69"></rect><rect x="0" y="84" width="28" height="28" fill="#4c4f69"></rect><rect x="112" y="84" width="28" height="28" fill="#4c4f69"></rect><rect x="0" y="112" width="28" height="28" fill="#4c4f69"></rect><rect x="112" y="112" width="28" height="28" fill="#4c4f69"></rect><rect x="0" y="140" width="28" height="28" fill="#4c4f69"></rect><rect x="28" y="140" width="28" height="28" fill="#4c4f69"></rect><rect x="56" y="140" width="28" height="28" fill="#4c4f69"></rect><rect x="84" y="140" width="28" height="28" fill="#4c4f69"></rect></g>
  <g transform="translate(540,138)"><rect x="28" y="0" width="28" height="28" fill="#4c4f69"></rect><rect x="56" y="0" width="28" height="28" fill="#4c4f69"></rect><rect x="84" y="0" width="28" height="28" fill="#4c4f69"></rect><rect x="0" y="28" width="28" height="28" fill="#4c4f69"></rect><rect x="112" y="28" width="28" height="28" fill="#4c4f69"></rect><rect x="0" y="56" width="28" height="28" fill="#4c4f69"></rect><rect x="112" y="56" width="28" height="28" fill="#4c4f69"></rect><rect x="0" y="84" width="28" height="28" fill="#4c4f69"></rect><rect x="112" y="84" width="28" height="28" fill="#4c4f69"></rect><rect x="28" y="112" width="28" height="28" fill="#4c4f69"></rect><rect x="56" y="112" width="28" height="28" fill="#4c4f69"></rect><rect x="84" y="112" width="28" height="28" fill="#4c4f69"></rect></g>
  <g transform="translate(700,138)"><rect x="0" y="0" width="28" height="28" fill="#4c4f69"></rect><rect x="112" y="0" width="28" height="28" fill="#4c4f69"></rect><rect x="28" y="28" width="28" height="28" fill="#4c4f69"></rect><rect x="84" y="28" width="28" height="28" fill="#4c4f69"></rect><rect x="56" y="56" width="28" height="28" fill="#4c4f69"></rect><rect x="28" y="84" width="28" height="28" fill="#4c4f69"></rect><rect x="84" y="84" width="28" height="28" fill="#4c4f69"></rect><rect x="0" y="112" width="28" height="28" fill="#4c4f69"></rect><rect x="112" y="112" width="28" height="28" fill="#4c4f69"></rect></g>
  <g><rect x="920" y="138" width="280" height="56" rx="28" ry="28" fill="none" stroke="#40a02b" stroke-width="1.5"></rect><text x="1060" y="166" fill="#40a02b" font-family="JetBrains Mono, ui-monospace, monospace" font-size="22" font-weight="500" letter-spacing="3" text-anchor="middle" dominant-baseline="middle">CROSS-PLATFORM</text></g>
  <text x="380" y="310" fill="#5c5f77" font-family="Inter, system-ui, sans-serif" font-size="34" font-weight="400" dominant-baseline="hanging">Privacy-focused fork of Google AI Edge Gallery</text>
  <rect x="380" y="372" width="420" height="3" fill="url(#accent-catppuccin-latte)"></rect>
  <g><rect x="380" y="400" width="326" height="48" rx="24" ry="24" fill="none" stroke="#6c6f85" stroke-width="1.25"></rect><text x="543" y="424" fill="#6c6f85" font-family="Inter, system-ui, sans-serif" font-size="20" font-weight="500" text-anchor="middle" dominant-baseline="middle">Hybrid LiteRT + llama.cpp</text></g>
  <g><rect x="718" y="400" width="210" height="48" rx="24" ry="24" fill="none" stroke="#8839ef" stroke-width="1.25"></rect><text x="823" y="424" fill="#8839ef" font-family="Inter, system-ui, sans-serif" font-size="20" font-weight="500" text-anchor="middle" dominant-baseline="middle">GPU · CPU · NPU</text></g>
  <g><rect x="940" y="400" width="188" height="48" rx="24" ry="24" fill="none" stroke="#fe640b" stroke-width="1.25"></rect><text x="1034" y="424" fill="#fe640b" font-family="Inter, system-ui, sans-serif" font-size="20" font-weight="500" text-anchor="middle" dominant-baseline="middle">Stable Diffusion</text></g><g><rect x="1140" y="400" width="80" height="48" rx="24" ry="24" fill="none" stroke="#179299" stroke-width="1.25"></rect><text x="1180" y="424" fill="#179299" font-family="Inter, system-ui, sans-serif" font-size="20" font-weight="500" text-anchor="middle" dominant-baseline="middle">MCP</text></g>
  <g><rect x="380" y="460" width="164" height="48" rx="24" ry="24" fill="none" stroke="#04a5e5" stroke-width="1.25"></rect><text x="462" y="484" fill="#04a5e5" font-family="Inter, system-ui, sans-serif" font-size="20" font-weight="500" text-anchor="middle" dominant-baseline="middle">Whisper STT</text></g>
  <g><rect x="556" y="460" width="164" height="48" rx="24" ry="24" fill="none" stroke="#40a02b" stroke-width="1.25"></rect><text x="638" y="484" fill="#40a02b" font-family="Inter, system-ui, sans-serif" font-size="20" font-weight="500" text-anchor="middle" dominant-baseline="middle">GGUF Import</text></g>
  <g><rect x="732" y="460" width="210" height="48" rx="24" ry="24" fill="none" stroke="#40a02b" stroke-width="1.25"></rect><text x="837" y="484" fill="#40a02b" font-family="Inter, system-ui, sans-serif" font-size="20" font-weight="500" text-anchor="middle" dominant-baseline="middle">Free Talk · S2S</text></g>
  <g><rect x="954" y="460" width="164" height="48" rx="24" ry="24" fill="none" stroke="#ea76cb" stroke-width="1.25"></rect><text x="1036" y="484" fill="#ea76cb" font-family="Inter, system-ui, sans-serif" font-size="20" font-weight="500" text-anchor="middle" dominant-baseline="middle">Vision Talk</text></g>
  <g><rect x="1130" y="460" width="90" height="48" rx="24" ry="24" fill="none" stroke="#04a5e5" stroke-width="1.25"></rect><text x="1175" y="484" fill="#04a5e5" font-family="Inter, system-ui, sans-serif" font-size="20" font-weight="500" text-anchor="middle" dominant-baseline="middle">RAG</text></g>
  <g><rect x="380" y="520" width="233" height="48" rx="24" ry="24" fill="none" stroke="#8839ef" stroke-width="1.25"></rect><text x="496.5" y="544" fill="#8839ef" font-family="Inter, system-ui, sans-serif" font-size="20" font-weight="500" text-anchor="middle" dominant-baseline="middle">Document Analysis</text></g>
  <g><rect x="625" y="520" width="198" height="48" rx="24" ry="24" fill="none" stroke="#df8e1d" stroke-width="1.25"></rect><text x="724" y="544" fill="#df8e1d" font-family="Inter, system-ui, sans-serif" font-size="20" font-weight="500" text-anchor="middle" dominant-baseline="middle">Encrypted Chat</text></g>
  <g><rect x="835" y="520" width="198" height="48" rx="24" ry="24" fill="none" stroke="#d20f39" stroke-width="1.25"></rect><text x="934" y="544" fill="#d20f39" font-family="Inter, system-ui, sans-serif" font-size="20" font-weight="500" text-anchor="middle" dominant-baseline="middle">Biometric Lock</text></g>
  <g><rect x="1045" y="520" width="175" height="48" rx="24" ry="24" fill="none" stroke="#d20f39" stroke-width="1.25"></rect><text x="1132.5" y="544" fill="#d20f39" font-family="Inter, system-ui, sans-serif" font-size="20" font-weight="500" text-anchor="middle" dominant-baseline="middle">Hard Offline</text></g>
  <text x="380" y="612" font-family="JetBrains Mono, ui-monospace, monospace" font-size="18" letter-spacing="1.5" fill="#7c7f93">CROSS-PLATFORM<tspan dx="14">·</tspan><tspan dx="8">APACHE 2.0</tspan><tspan dx="14">·</tspan><tspan dx="8">KOTLIN + COMPOSE</tspan><tspan dx="14">·</tspan><tspan dx="8" fill="#40a02b">100% ON-DEVICE</tspan></text>
</svg>