<?xml version="1.0"?>
<svg xmlns="http://www.w3.org/2000/svg" viewBox="0 0 1280 640" width="1280" height="640">
  <defs>
    <linearGradient id="bg-v3" x1="0" y1="0" x2="0" y2="1">
      <stop offset="0" stop-color="#0a0e14"></stop>
      <stop offset="1" stop-color="#0a1410"></stop>
    </linearGradient>
    <radialGradient id="glow-v3" cx="0%" cy="100%" r="70%">
      <stop offset="0%" stop-color="#1d3a2a" stop-opacity="0.55"></stop>
      <stop offset="100%" stop-color="#1d3a2a" stop-opacity="0"></stop>
    </radialGradient>
    <linearGradient id="accent-v3" x1="0" y1="0" x2="1" y2="0">
      <stop offset="0" stop-color="#50FA7B"></stop>
      <stop offset="1" stop-color="#BD93F9"></stop>
    </linearGradient>
    <radialGradient id="cubeglow" cx="50%" cy="50%" r="50%">
      <stop offset="0%" stop-color="#39ff88" stop-opacity="0.22"></stop>
      <stop offset="25%" stop-color="#39ff88" stop-opacity="0.121"></stop>
      <stop offset="55%" stop-color="#39ff88" stop-opacity="0.0396"></stop>
      <stop offset="100%" stop-color="#39ff88" stop-opacity="0"></stop>
    </radialGradient>
  </defs>
  <rect width="1280" height="640" fill="url(#bg-v3)"></rect>
  <g stroke="rgba(80,250,123,0.30)" stroke-width="1"><line x1="123" y1="128" x2="133" y2="128"></line><line x1="128" y1="123" x2="128" y2="133"></line></g><g stroke="rgba(80,250,123,0.30)" stroke-width="1"><line x1="123" y1="256" x2="133" y2="256"></line><line x1="128" y1="251" x2="128" y2="261"></line></g><g stroke="rgba(80,250,123,0.30)" stroke-width="1"><line x1="123" y1="384" x2="133" y2="384"></line><line x1="128" y1="379" x2="128" y2="389"></line></g><g stroke="rgba(80,250,123,0.30)" stroke-width="1"><line x1="123" y1="512" x2="133" y2="512"></line><line x1="128" y1="507" x2="128" y2="517"></line></g><g stroke="rgba(80,250,123,0.30)" stroke-width="1"><line x1="251" y1="128" x2="261" y2="128"></line><line x1="256" y1="123" x2="256" y2="133"></line></g><g stroke="rgba(80,250,123,0.30)" stroke-width="1"><line x1="251" y1="256" x2="261" y2="256"></line><line x1="256" y1="251" x2="256" y2="261"></line></g><g stroke="rgba(80,250,123,0.30)" stroke-width="1"><line x1="251" y1="384" x2="261" y2="384"></line><line x1="256" y1="379" x2="256" y2="389"></line></g><g stroke="rgba(80,250,123,0.30)" stroke-width="1"><line x1="251" y1="512" x2="261" y2="512"></line><line x1="256" y1="507" x2="256" y2="517"></line></g><g stroke="rgba(80,250,123,0.30)" stroke-width="1"><line x1="379" y1="128" x2="389" y2="128"></line><line x1="384" y1="123" x2="384" y2="133"></line></g><g stroke="rgba(80,250,123,0.30)" stroke-width="1"><line x1="379" y1="256" x2="389" y2="256"></line><line x1="384" y1="251" x2="384" y2="261"></line></g><g stroke="rgba(80,250,123,0.30)" stroke-width="1"><line x1="379" y1="384" x2="389" y2="384"></line><line x1="384" y1="379" x2="384" y2="389"></line></g><g stroke="rgba(80,250,123,0.30)" stroke-width="1"><line x1="379" y1="512" x2="389" y2="512"></line><line x1="384" y1="507" x2="384" y2="517"></line></g><g stroke="rgba(80,250,123,0.30)" stroke-width="1"><line x1="507" y1="128" x2="517" y2="128"></line><line x1="512" y1="123" x2="512" y2="133"></line></g><g stroke="rgba(80,250,123,0.30)" stroke-width="1"><line x1="507" y1="256" x2="517" y2="256"></line><line x1="512" y1="251" x2="512" y2="261"></line></g><g stroke="rgba(80,250,123,0.30)" stroke-width="1"><line x1="507" y1="384" x2="517" y2="384"></line><line x1="512" y1="379" x2="512" y2="389"></line></g><g stroke="rgba(80,250,123,0.30)" stroke-width="1"><line x1="507" y1="512" x2="517" y2="512"></line><line x1="512" y1="507" x2="512" y2="517"></line></g><g stroke="rgba(80,250,123,0.30)" stroke-width="1"><line x1="635" y1="128" x2="645" y2="128"></line><line x1="640" y1="123" x2="640" y2="133"></line></g><g stroke="rgba(80,250,123,0.30)" stroke-width="1"><line x1="635" y1="256" x2="645" y2="256"></line><line x1="640" y1="251" x2="640" y2="261"></line></g><g stroke="rgba(80,250,123,0.30)" stroke-width="1"><line x1="635" y1="384" x2="645" y2="384"></line><line x1="640" y1="379" x2="640" y2="389"></line></g><g stroke="rgba(80,250,123,0.30)" stroke-width="1"><line x1="635" y1="512" x2="645" y2="512"></line><line x1="640" y1="507" x2="640" y2="517"></line></g><g stroke="rgba(80,250,123,0.30)" stroke-width="1"><line x1="763" y1="128" x2="773" y2="128"></line><line x1="768" y1="123" x2="768" y2="133"></line></g><g stroke="rgba(80,250,123,0.30)" stroke-width="1"><line x1="763" y1="256" x2="773" y2="256"></line><line x1="768" y1="251" x2="768" y2="261"></line></g><g stroke="rgba(80,250,123,0.30)" stroke-width="1"><line x1="763" y1="384" x2="773" y2="384"></line><line x1="768" y1="379" x2="768" y2="389"></line></g><g stroke="rgba(80,250,123,0.30)" stroke-width="1"><line x1="763" y1="512" x2="773" y2="512"></line><line x1="768" y1="507" x2="768" y2="517"></line></g><g stroke="rgba(80,250,123,0.30)" stroke-width="1"><line x1="891" y1="128" x2="901" y2="128"></line><line x1="896" y1="123" x2="896" y2="133"></line></g><g stroke="rgba(80,250,123,0.30)" stroke-width="1"><line x1="891" y1="256" x2="901" y2="256"></line><line x1="896" y1="251" x2="896" y2="261"></line></g><g stroke="rgba(80,250,123,0.30)" stroke-width="1"><line x1="891" y1="384" x2="901" y2="384"></line><line x1="896" y1="379" x2="896" y2="389"></line></g><g stroke="rgba(80,250,123,0.30)" stroke-width="1"><line x1="891" y1="512" x2="901" y2="512"></line><line x1="896" y1="507" x2="896" y2="517"></line></g><g stroke="rgba(80,250,123,0.30)" stroke-width="1"><line x1="1019" y1="128" x2="1029" y2="128"></line><line x1="1024" y1="123" x2="1024" y2="133"></line></g><g stroke="rgba(80,250,123,0.30)" stroke-width="1"><line x1="1019" y1="256" x2="1029" y2="256"></line><line x1="1024" y1="251" x2="1024" y2="261"></line></g><g stroke="rgba(80,250,123,0.30)" stroke-width="1"><line x1="1019" y1="384" x2="1029" y2="384"></line><line x1="1024" y1="379" x2="1024" y2="389"></line></g><g stroke="rgba(80,250,123,0.30)" stroke-width="1"><line x1="1019" y1="512" x2="1029" y2="512"></line><line x1="1024" y1="507" x2="1024" y2="517"></line></g><g stroke="rgba(80,250,123,0.30)" stroke-width="1"><line x1="1147" y1="128" x2="1157" y2="128"></line><line x1="1152" y1="123" x2="1152" y2="133"></line></g><g stroke="rgba(80,250,123,0.30)" stroke-width="1"><line x1="1147" y1="256" x2="1157" y2="256"></line><line x1="1152" y1="251" x2="1152" y2="261"></line></g><g stroke="rgba(80,250,123,0.30)" stroke-width="1"><line x1="1147" y1="384" x2="1157" y2="384"></line><line x1="1152" y1="379" x2="1152" y2="389"></line></g><g stroke="rgba(80,250,123,0.30)" stroke-width="1"><line x1="1147" y1="512" x2="1157" y2="512"></line><line x1="1152" y1="507" x2="1152" y2="517"></line></g>
  <rect width="1280" height="640" fill="url(#glow-v3)"></rect>
  <g stroke="#2a8c4a" stroke-width="2" fill="none">
    <path d="M 32 64 L 32 32 L 64 32"></path>
    <path d="M 1216 32 L 1248 32 L 1248 64"></path>
    <path d="M 32 576 L 32 608 L 64 608"></path>
    <path d="M 1216 608 L 1248 608 L 1248 576"></path>
  </g>
  <circle cx="197" cy="326" r="200" fill="url(#cubeglow)"></circle>
  <g transform="translate(92,210) scale(1.05)">
  <polygon points="100,10 190,55 100,100 10,55" fill="#e8e8e8" stroke="#1a1a1a" stroke-width="1.5" stroke-linejoin="miter"></polygon>
  <polygon points="10,55 100,100 100,210 10,165" fill="#3a3a3a" stroke="#1a1a1a" stroke-width="1.5" stroke-linejoin="miter"></polygon>
  <polygon points="190,55 100,100 100,210 190,165" fill="#bdbdbd" stroke="#1a1a1a" stroke-width="1.5" stroke-linejoin="miter"></polygon>
</g>
  <g transform="translate(380,110)"><rect x="0" y="0" width="28" height="28" fill="#ffffff"></rect><rect x="28" y="0" width="28" height="28" fill="#ffffff"></rect><rect x="56" y="0" width="28" height="28" fill="#ffffff"></rect><rect x="84" y="0" width="28" height="28" fill="#ffffff"></rect><rect x="0" y="28" width="28" height="28" fill="#ffffff"></rect><rect x="112" y="28" width="28" height="28" fill="#ffffff"></rect><rect x="0" y="56" width="28" height="28" fill="#ffffff"></rect><rect x="28" y="56" width="28" height="28" fill="#ffffff"></rect><rect x="56" y="56" width="28" height="28" fill="#ffffff"></rect><rect x="84" y="56" width="28" height="28" fill="#ffffff"></rect><rect x="0" y="84" width="28" height="28" fill="#ffffff"></rect><rect x="112" y="84" width="28" height="28" fill="#ffffff"></rect><rect x="0" y="112" width="28" height="28" fill="#ffffff"></rect><rect x="112" y="112" width="28" height="28" fill="#ffffff"></rect><rect x="0" y="140" width="28" height="28" fill="#ffffff"></rect><rect x="28" y="140" width="28" height="28" fill="#ffffff"></rect><rect x="56" y="140" width="28" height="28" fill="#ffffff"></rect><rect x="84" y="140" width="28" height="28" fill="#ffffff"></rect></g><g transform="translate(540,110)"><rect x="28" y="28" width="28" height="28" fill="#ffffff"></rect><rect x="56" y="28" width="28" height="28" fill="#ffffff"></rect><rect x="84" y="28" width="28" height="28" fill="#ffffff"></rect><rect x="0" y="56" width="28" height="28" fill="#ffffff"></rect><rect x="112" y="56" width="28" height="28" fill="#ffffff"></rect><rect x="0" y="84" width="28" height="28" fill="#ffffff"></rect><rect x="112" y="84" width="28" height="28" fill="#ffffff"></rect><rect x="0" y="112" width="28" height="28" fill="#ffffff"></rect><rect x="112" y="112" width="28" height="28" fill="#ffffff"></rect><rect x="28" y="140" width="28" height="28" fill="#ffffff"></rect><rect x="56" y="140" width="28" height="28" fill="#ffffff"></rect><rect x="84" y="140" width="28" height="28" fill="#ffffff"></rect></g><g transform="translate(700,110)"><rect x="0" y="28" width="28" height="28" fill="#ffffff"></rect><rect x="112" y="28" width="28" height="28" fill="#ffffff"></rect><rect x="28" y="56" width="28" height="28" fill="#ffffff"></rect><rect x="84" y="56" width="28" height="28" fill="#ffffff"></rect><rect x="56" y="84" width="28" height="28" fill="#ffffff"></rect><rect x="28" y="112" width="28" height="28" fill="#ffffff"></rect><rect x="84" y="112" width="28" height="28" fill="#ffffff"></rect><rect x="0" y="140" width="28" height="28" fill="#ffffff"></rect><rect x="112" y="140" width="28" height="28" fill="#ffffff"></rect></g>
  <text x="380" y="310" fill="#c8cdd2" font-family="Inter, system-ui, sans-serif" font-size="34" font-weight="400" dominant-baseline="hanging">Privacy-focused fork of Google AI Edge Gallery</text>
  <rect x="380" y="372" width="420" height="3" fill="url(#accent-v3)"></rect>
  <g><rect x="380" y="400" width="326" height="48" rx="24" ry="24" fill="none" stroke="#6272A4" stroke-width="1.25"></rect><text x="543" y="424" fill="#6272A4" font-family="Inter, system-ui, sans-serif" font-size="20" font-weight="500" text-anchor="middle" dominant-baseline="middle">Hybrid LiteRT + llama.cpp</text></g><g><rect x="718" y="400" width="210" height="48" rx="24" ry="24" fill="none" stroke="#BD93F9" stroke-width="1.25"></rect><text x="823" y="424" fill="#BD93F9" font-family="Inter, system-ui, sans-serif" font-size="20" font-weight="500" text-anchor="middle" dominant-baseline="middle">GPU · CPU · NPU</text></g><g><rect x="940" y="400" width="222" height="48" rx="24" ry="24" fill="none" stroke="#FFB86C" stroke-width="1.25"></rect><text x="1051" y="424" fill="#FFB86C" font-family="Inter, system-ui, sans-serif" font-size="20" font-weight="500" text-anchor="middle" dominant-baseline="middle">Stable Diffusion</text></g><g><rect x="380" y="460" width="164" height="48" rx="24" ry="24" fill="none" stroke="#8BE9FD" stroke-width="1.25"></rect><text x="462" y="484" fill="#8BE9FD" font-family="Inter, system-ui, sans-serif" font-size="20" font-weight="500" text-anchor="middle" dominant-baseline="middle">Whisper STT</text></g><g><rect x="556" y="460" width="164" height="48" rx="24" ry="24" fill="none" stroke="#50FA7B" stroke-width="1.25"></rect><text x="638" y="484" fill="#50FA7B" font-family="Inter, system-ui, sans-serif" font-size="20" font-weight="500" text-anchor="middle" dominant-baseline="middle">GGUF Import</text></g><g><rect x="732" y="460" width="210" height="48" rx="24" ry="24" fill="none" stroke="#50FA7B" stroke-width="1.25"></rect><text x="837" y="484" fill="#50FA7B" font-family="Inter, system-ui, sans-serif" font-size="20" font-weight="500" text-anchor="middle" dominant-baseline="middle">Free Talk · S2S</text></g><g><rect x="954" y="460" width="164" height="48" rx="24" ry="24" fill="none" stroke="#FF79C6" stroke-width="1.25"></rect><text x="1036" y="484" fill="#FF79C6" font-family="Inter, system-ui, sans-serif" font-size="20" font-weight="500" text-anchor="middle" dominant-baseline="middle">Vision Talk</text></g><g><rect x="380" y="520" width="233" height="48" rx="24" ry="24" fill="none" stroke="#BD93F9" stroke-width="1.25"></rect><text x="496.5" y="544" fill="#BD93F9" font-family="Inter, system-ui, sans-serif" font-size="20" font-weight="500" text-anchor="middle" dominant-baseline="middle">Document Analysis</text></g><g><rect x="625" y="520" width="198" height="48" rx="24" ry="24" fill="none" stroke="#F1FA8C" stroke-width="1.25"></rect><text x="724" y="544" fill="#F1FA8C" font-family="Inter, system-ui, sans-serif" font-size="20" font-weight="500" text-anchor="middle" dominant-baseline="middle">Encrypted Chat</text></g><g><rect x="835" y="520" width="198" height="48" rx="24" ry="24" fill="none" stroke="#FF5555" stroke-width="1.25"></rect><text x="934" y="544" fill="#FF5555" font-family="Inter, system-ui, sans-serif" font-size="20" font-weight="500" text-anchor="middle" dominant-baseline="middle">Biometric Lock</text></g><g><rect x="1045" y="520" width="175" height="48" rx="24" ry="24" fill="none" stroke="#FF5555" stroke-width="1.25"></rect><text x="1132.5" y="544" fill="#FF5555" font-family="Inter, system-ui, sans-serif" font-size="20" font-weight="500" text-anchor="middle" dominant-baseline="middle">Hard Offline</text></g>
  <g font-family="JetBrains Mono, ui-monospace, monospace" font-size="18" letter-spacing="1.5">
    <text x="380" y="612" fill="#6b7480">ANDROID 16+</text>
    <text x="540" y="612" fill="#6b7480">·  APACHE 2.0</text>
    <text x="700" y="612" fill="#6b7480">·  KOTLIN + COMPOSE</text>
    <text x="960" y="612" fill="#50FA7B">·  100% ON-DEVICE</text>
  </g>
</svg>