<?xml version="1.0" encoding="UTF-8"?>
<svg xmlns="http://www.w3.org/2000/svg" viewBox="0 0 1600 500" width="1600" height="500">
  <defs>
    <linearGradient id="bg-dracula" x1="0" y1="0" x2="0" y2="1">
      <stop offset="0" stop-color="#0a0e14"></stop>
      <stop offset="1" stop-color="#0a1410"></stop>
    </linearGradient>
    <pattern id="grid-dracula" width="80" height="80" patternUnits="userSpaceOnUse">
      <path d="M 80 0 L 0 0 0 80" fill="none" stroke="rgba(120,140,150,0.06)" stroke-width="1"></path>
    </pattern>
    <radialGradient id="glow-dracula" cx="0%" cy="100%" r="70%">
      <stop offset="0%" stop-color="#1d3a2a" stop-opacity="0.55"></stop>
      <stop offset="100%" stop-color="#1d3a2a" stop-opacity="0"></stop>
    </radialGradient>
    <linearGradient id="accent-dracula" x1="0" y1="0" x2="1" y2="0">
      <stop offset="0" stop-color="#50FA7B"></stop>
      <stop offset="1" stop-color="#BD93F9"></stop>
    </linearGradient>
  </defs>

  <rect width="1600" height="500" fill="url(#bg-dracula)"></rect>
  <rect width="1600" height="500" fill="url(#grid-dracula)"></rect>
  <rect width="1600" height="500" fill="url(#glow-dracula)"></rect>

  <g transform="translate(28,28) rotate(0)">
    <line x1="0" y1="0" x2="28" y2="0" stroke="#2a8c4a" stroke-width="2"></line>
    <line x1="0" y1="0" x2="0" y2="28" stroke="#2a8c4a" stroke-width="2"></line>
  </g>
  <g transform="translate(1572,28) rotate(90)">
    <line x1="0" y1="0" x2="28" y2="0" stroke="#2a8c4a" stroke-width="2"></line>
    <line x1="0" y1="0" x2="0" y2="28" stroke="#2a8c4a" stroke-width="2"></line>
  </g>
  <g transform="translate(28,472) rotate(270)">
    <line x1="0" y1="0" x2="28" y2="0" stroke="#2a8c4a" stroke-width="2"></line>
    <line x1="0" y1="0" x2="0" y2="28" stroke="#2a8c4a" stroke-width="2"></line>
  </g>
  <g transform="translate(1572,472) rotate(180)">
    <line x1="0" y1="0" x2="28" y2="0" stroke="#2a8c4a" stroke-width="2"></line>
    <line x1="0" y1="0" x2="0" y2="28" stroke="#2a8c4a" stroke-width="2"></line>
  </g>

  
    <g transform="translate(90,130) scale(1.2)">
      <polygon points="100,10 190,55 100,100 10,55" fill="#e8e8e8" stroke="#1a1a1a" stroke-width="1.5" stroke-linejoin="miter"></polygon>
      <polygon points="10,55 100,100 100,210 10,165" fill="#3a3a3a" stroke="#1a1a1a" stroke-width="1.5" stroke-linejoin="miter"></polygon>
      <polygon points="190,55 100,100 100,210 190,165" fill="#bdbdbd" stroke="#1a1a1a" stroke-width="1.5" stroke-linejoin="miter"></polygon>
    </g>

  <rect x="380" y="70" width="16" height="16" fill="#ffffff"></rect><rect x="396" y="70" width="16" height="16" fill="#ffffff"></rect><rect x="412" y="70" width="16" height="16" fill="#ffffff"></rect><rect x="428" y="70" width="16" height="16" fill="#ffffff"></rect><rect x="380" y="86" width="16" height="16" fill="#ffffff"></rect><rect x="444" y="86" width="16" height="16" fill="#ffffff"></rect><rect x="380" y="102" width="16" height="16" fill="#ffffff"></rect><rect x="444" y="102" width="16" height="16" fill="#ffffff"></rect><rect x="380" y="118" width="16" height="16" fill="#ffffff"></rect><rect x="396" y="118" width="16" height="16" fill="#ffffff"></rect><rect x="412" y="118" width="16" height="16" fill="#ffffff"></rect><rect x="428" y="118" width="16" height="16" fill="#ffffff"></rect><rect x="380" y="134" width="16" height="16" fill="#ffffff"></rect><rect x="444" y="134" width="16" height="16" fill="#ffffff"></rect><rect x="380" y="150" width="16" height="16" fill="#ffffff"></rect><rect x="444" y="150" width="16" height="16" fill="#ffffff"></rect><rect x="380" y="166" width="16" height="16" fill="#ffffff"></rect><rect x="396" y="166" width="16" height="16" fill="#ffffff"></rect><rect x="412" y="166" width="16" height="16" fill="#ffffff"></rect><rect x="428" y="166" width="16" height="16" fill="#ffffff"></rect><rect x="495.2" y="102" width="16" height="16" fill="#ffffff"></rect><rect x="511.2" y="102" width="16" height="16" fill="#ffffff"></rect><rect x="527.2" y="102" width="16" height="16" fill="#ffffff"></rect><rect x="479.2" y="118" width="16" height="16" fill="#ffffff"></rect><rect x="543.2" y="118" width="16" height="16" fill="#ffffff"></rect><rect x="479.2" y="134" width="16" height="16" fill="#ffffff"></rect><rect x="543.2" y="134" width="16" height="16" fill="#ffffff"></rect><rect x="479.2" y="150" width="16" height="16" fill="#ffffff"></rect><rect x="543.2" y="150" width="16" height="16" fill="#ffffff"></rect><rect x="495.2" y="166" width="16" height="16" fill="#ffffff"></rect><rect x="511.2" y="166" width="16" height="16" fill="#ffffff"></rect><rect x="527.2" y="166" width="16" height="16" fill="#ffffff"></rect><rect x="578.4" y="102" width="16" height="16" fill="#ffffff"></rect><rect x="642.4" y="102" width="16" height="16" fill="#ffffff"></rect><rect x="594.4" y="118" width="16" height="16" fill="#ffffff"></rect><rect x="626.4" y="118" width="16" height="16" fill="#ffffff"></rect><rect x="610.4" y="134" width="16" height="16" fill="#ffffff"></rect><rect x="594.4" y="150" width="16" height="16" fill="#ffffff"></rect><rect x="626.4" y="150" width="16" height="16" fill="#ffffff"></rect><rect x="578.4" y="166" width="16" height="16" fill="#ffffff"></rect><rect x="642.4" y="166" width="16" height="16" fill="#ffffff"></rect>

  <text x="380" y="206" fill="#9aa0a6" font-family="Inter, system-ui, sans-serif" font-size="26" font-weight="400" dominant-baseline="hanging">Feature rich Privacy-focused fork of Google AI Edge Gallery</text>

  
      <g>
        <rect x="380" y="262" width="256" height="36" rx="18" ry="18" fill="none" stroke="#6272A4" stroke-width="1"></rect>
        <text x="508" y="280" fill="#6272A4" font-family="Inter, system-ui, sans-serif" font-size="16" font-weight="500" text-anchor="middle" dominant-baseline="middle">Hybrid LiteRT + llama.cpp</text>
      </g>
      <g>
        <rect x="652" y="262" width="168" height="36" rx="18" ry="18" fill="none" stroke="#BD93F9" stroke-width="1"></rect>
        <text x="736" y="280" fill="#BD93F9" font-family="Inter, system-ui, sans-serif" font-size="16" font-weight="500" text-anchor="middle" dominant-baseline="middle">GPU · CPU · NPU</text>
      </g>
      <g>
        <rect x="836" y="262" width="176.8" height="36" rx="18" ry="18" fill="none" stroke="#FFB86C" stroke-width="1"></rect>
        <text x="924.4" y="280" fill="#FFB86C" font-family="Inter, system-ui, sans-serif" font-size="16" font-weight="500" text-anchor="middle" dominant-baseline="middle">Stable Diffusion</text>
      </g>
      <g>
        <rect x="1028.8" y="262" width="132.8" height="36" rx="18" ry="18" fill="none" stroke="#8BE9FD" stroke-width="1"></rect>
        <text x="1095.2" y="280" fill="#8BE9FD" font-family="Inter, system-ui, sans-serif" font-size="16" font-weight="500" text-anchor="middle" dominant-baseline="middle">Whisper STT</text>
      </g>
      <g>
        <rect x="1177.6" y="262" width="132.8" height="36" rx="18" ry="18" fill="none" stroke="#50FA7B" stroke-width="1"></rect>
        <text x="1244" y="280" fill="#50FA7B" font-family="Inter, system-ui, sans-serif" font-size="16" font-weight="500" text-anchor="middle" dominant-baseline="middle">GGUF Import</text>
      </g>
  
      <g>
        <rect x="380" y="314" width="168" height="36" rx="18" ry="18" fill="none" stroke="#50FA7B" stroke-width="1"></rect>
        <text x="464" y="332" fill="#50FA7B" font-family="Inter, system-ui, sans-serif" font-size="16" font-weight="500" text-anchor="middle" dominant-baseline="middle">Free Talk · S2S</text>
      </g>
      <g>
        <rect x="564" y="314" width="132.8" height="36" rx="18" ry="18" fill="none" stroke="#FF79C6" stroke-width="1"></rect>
        <text x="630.4" y="332" fill="#FF79C6" font-family="Inter, system-ui, sans-serif" font-size="16" font-weight="500" text-anchor="middle" dominant-baseline="middle">Vision Talk</text>
      </g>
      <g>
        <rect x="712.8" y="314" width="185.60000000000002" height="36" rx="18" ry="18" fill="none" stroke="#BD93F9" stroke-width="1"></rect>
        <text x="805.5999999999999" y="332" fill="#BD93F9" font-family="Inter, system-ui, sans-serif" font-size="16" font-weight="500" text-anchor="middle" dominant-baseline="middle">Document Analysis</text>
      </g>
      <g>
        <rect x="914.4" y="314" width="159.20000000000002" height="36" rx="18" ry="18" fill="none" stroke="#F1FA8C" stroke-width="1"></rect>
        <text x="994" y="332" fill="#F1FA8C" font-family="Inter, system-ui, sans-serif" font-size="16" font-weight="500" text-anchor="middle" dominant-baseline="middle">Encrypted Chat</text>
      </g>
      <g>
        <rect x="1089.6" y="314" width="159.20000000000002" height="36" rx="18" ry="18" fill="none" stroke="#FF5555" stroke-width="1"></rect>
        <text x="1169.1999999999998" y="332" fill="#FF5555" font-family="Inter, system-ui, sans-serif" font-size="16" font-weight="500" text-anchor="middle" dominant-baseline="middle">Biometric Lock</text>
      </g>
      <g>
        <rect x="1264.8" y="314" width="141.60000000000002" height="36" rx="18" ry="18" fill="none" stroke="#FF5555" stroke-width="1"></rect>
        <text x="1335.6" y="332" fill="#FF5555" font-family="Inter, system-ui, sans-serif" font-size="16" font-weight="500" text-anchor="middle" dominant-baseline="middle">Hard Offline</text>
      </g>

  <rect x="380" y="372" width="380" height="2" fill="url(#accent-dracula)"></rect>

  <g font-family="JetBrains Mono, ui-monospace, monospace" font-size="14" letter-spacing="1.5">
    <text x="380" y="420" fill="#5b6370">ANDROID 16+</text>
    <text x="540" y="420" fill="#5b6370">· APACHE 2.0</text>
    <text x="700" y="420" fill="#5b6370">· KOTLIN + COMPOSE</text>
    <text x="970" y="420" fill="#50FA7B">· 100% ON-DEVICE</text>
    <text x="1180" y="420" fill="#5b6370">· OPEN SOURCE</text>
  </g>
</svg>