<?xml version="1.0" encoding="UTF-8"?>
<svg xmlns="http://www.w3.org/2000/svg" viewBox="0 0 1600 500" width="1600" height="500">
  <defs>
    <linearGradient id="bg-cyber" x1="0" y1="0" x2="0" y2="1">
      <stop offset="0" stop-color="#08060f"></stop>
      <stop offset="1" stop-color="#0f0820"></stop>
    </linearGradient>
    <pattern id="grid-cyber" width="80" height="80" patternUnits="userSpaceOnUse">
      <path d="M 80 0 L 0 0 0 80" fill="none" stroke="rgba(180,120,255,0.07)" stroke-width="1"></path>
    </pattern>
    <radialGradient id="glow-cyber" cx="0%" cy="100%" r="70%">
      <stop offset="0%" stop-color="#2a0a3a" stop-opacity="0.55"></stop>
      <stop offset="100%" stop-color="#2a0a3a" stop-opacity="0"></stop>
    </radialGradient>
    <linearGradient id="accent-cyber" x1="0" y1="0" x2="1" y2="0">
      <stop offset="0" stop-color="#ff2a93"></stop>
      <stop offset="1" stop-color="#22e0ff"></stop>
    </linearGradient>
  </defs>

  <rect width="1600" height="500" fill="url(#bg-cyber)"></rect>
  <rect width="1600" height="500" fill="url(#grid-cyber)"></rect>
  <rect width="1600" height="500" fill="url(#glow-cyber)"></rect>

  <g transform="translate(28,28) rotate(0)">
    <line x1="0" y1="0" x2="28" y2="0" stroke="#ff2a93" stroke-width="2"></line>
    <line x1="0" y1="0" x2="0" y2="28" stroke="#ff2a93" stroke-width="2"></line>
  </g>
  <g transform="translate(1572,28) rotate(90)">
    <line x1="0" y1="0" x2="28" y2="0" stroke="#ff2a93" stroke-width="2"></line>
    <line x1="0" y1="0" x2="0" y2="28" stroke="#ff2a93" stroke-width="2"></line>
  </g>
  <g transform="translate(28,472) rotate(270)">
    <line x1="0" y1="0" x2="28" y2="0" stroke="#ff2a93" stroke-width="2"></line>
    <line x1="0" y1="0" x2="0" y2="28" stroke="#ff2a93" stroke-width="2"></line>
  </g>
  <g transform="translate(1572,472) rotate(180)">
    <line x1="0" y1="0" x2="28" y2="0" stroke="#ff2a93" stroke-width="2"></line>
    <line x1="0" y1="0" x2="0" y2="28" stroke="#ff2a93" stroke-width="2"></line>
  </g>

  
    <g transform="translate(90,130) scale(1.2)">
      <polygon points="100,10 190,55 100,100 10,55" fill="#f0f0ff" stroke="#0a0518" stroke-width="1.5" stroke-linejoin="miter"></polygon>
      <polygon points="10,55 100,100 100,210 10,165" fill="#1a0a2a" stroke="#0a0518" stroke-width="1.5" stroke-linejoin="miter"></polygon>
      <polygon points="190,55 100,100 100,210 190,165" fill="#a890d4" stroke="#0a0518" stroke-width="1.5" stroke-linejoin="miter"></polygon>
    </g>

  <rect x="380" y="70" width="16" height="16" fill="#ffffff"></rect><rect x="396" y="70" width="16" height="16" fill="#ffffff"></rect><rect x="412" y="70" width="16" height="16" fill="#ffffff"></rect><rect x="428" y="70" width="16" height="16" fill="#ffffff"></rect><rect x="380" y="86" width="16" height="16" fill="#ffffff"></rect><rect x="444" y="86" width="16" height="16" fill="#ffffff"></rect><rect x="380" y="102" width="16" height="16" fill="#ffffff"></rect><rect x="444" y="102" width="16" height="16" fill="#ffffff"></rect><rect x="380" y="118" width="16" height="16" fill="#ffffff"></rect><rect x="396" y="118" width="16" height="16" fill="#ffffff"></rect><rect x="412" y="118" width="16" height="16" fill="#ffffff"></rect><rect x="428" y="118" width="16" height="16" fill="#ffffff"></rect><rect x="380" y="134" width="16" height="16" fill="#ffffff"></rect><rect x="444" y="134" width="16" height="16" fill="#ffffff"></rect><rect x="380" y="150" width="16" height="16" fill="#ffffff"></rect><rect x="444" y="150" width="16" height="16" fill="#ffffff"></rect><rect x="380" y="166" width="16" height="16" fill="#ffffff"></rect><rect x="396" y="166" width="16" height="16" fill="#ffffff"></rect><rect x="412" y="166" width="16" height="16" fill="#ffffff"></rect><rect x="428" y="166" width="16" height="16" fill="#ffffff"></rect><rect x="495.2" y="102" width="16" height="16" fill="#ffffff"></rect><rect x="511.2" y="102" width="16" height="16" fill="#ffffff"></rect><rect x="527.2" y="102" width="16" height="16" fill="#ffffff"></rect><rect x="479.2" y="118" width="16" height="16" fill="#ffffff"></rect><rect x="543.2" y="118" width="16" height="16" fill="#ffffff"></rect><rect x="479.2" y="134" width="16" height="16" fill="#ffffff"></rect><rect x="543.2" y="134" width="16" height="16" fill="#ffffff"></rect><rect x="479.2" y="150" width="16" height="16" fill="#ffffff"></rect><rect x="543.2" y="150" width="16" height="16" fill="#ffffff"></rect><rect x="495.2" y="166" width="16" height="16" fill="#ffffff"></rect><rect x="511.2" y="166" width="16" height="16" fill="#ffffff"></rect><rect x="527.2" y="166" width="16" height="16" fill="#ffffff"></rect><rect x="578.4" y="102" width="16" height="16" fill="#ffffff"></rect><rect x="642.4" y="102" width="16" height="16" fill="#ffffff"></rect><rect x="594.4" y="118" width="16" height="16" fill="#ffffff"></rect><rect x="626.4" y="118" width="16" height="16" fill="#ffffff"></rect><rect x="610.4" y="134" width="16" height="16" fill="#ffffff"></rect><rect x="594.4" y="150" width="16" height="16" fill="#ffffff"></rect><rect x="626.4" y="150" width="16" height="16" fill="#ffffff"></rect><rect x="578.4" y="166" width="16" height="16" fill="#ffffff"></rect><rect x="642.4" y="166" width="16" height="16" fill="#ffffff"></rect>

  <text x="380" y="206" fill="#9a8ac4" font-family="Inter, system-ui, sans-serif" font-size="26" font-weight="400" dominant-baseline="hanging">Feature rich Privacy-focused fork of Google AI Edge Gallery</text>

  
      <g>
        <rect x="380" y="262" width="256" height="36" rx="18" ry="18" fill="none" stroke="#ff2a93" stroke-width="1"></rect>
        <text x="508" y="280" fill="#ff2a93" font-family="Inter, system-ui, sans-serif" font-size="16" font-weight="500" text-anchor="middle" dominant-baseline="middle">Hybrid LiteRT + llama.cpp</text>
      </g>
      <g>
        <rect x="652" y="262" width="168" height="36" rx="18" ry="18" fill="none" stroke="#22e0ff" stroke-width="1"></rect>
        <text x="736" y="280" fill="#22e0ff" font-family="Inter, system-ui, sans-serif" font-size="16" font-weight="500" text-anchor="middle" dominant-baseline="middle">GPU · CPU · NPU</text>
      </g>
      <g>
        <rect x="836" y="262" width="176.8" height="36" rx="18" ry="18" fill="none" stroke="#ffe93a" stroke-width="1"></rect>
        <text x="924.4" y="280" fill="#ffe93a" font-family="Inter, system-ui, sans-serif" font-size="16" font-weight="500" text-anchor="middle" dominant-baseline="middle">Stable Diffusion</text>
      </g>
      <g>
        <rect x="1028.8" y="262" width="132.8" height="36" rx="18" ry="18" fill="none" stroke="#22e0ff" stroke-width="1"></rect>
        <text x="1095.2" y="280" fill="#22e0ff" font-family="Inter, system-ui, sans-serif" font-size="16" font-weight="500" text-anchor="middle" dominant-baseline="middle">Whisper STT</text>
      </g>
      <g>
        <rect x="1177.6" y="262" width="132.8" height="36" rx="18" ry="18" fill="none" stroke="#b66bff" stroke-width="1"></rect>
        <text x="1244" y="280" fill="#b66bff" font-family="Inter, system-ui, sans-serif" font-size="16" font-weight="500" text-anchor="middle" dominant-baseline="middle">GGUF Import</text>
      </g>
  
      <g>
        <rect x="380" y="314" width="168" height="36" rx="18" ry="18" fill="none" stroke="#22ffaa" stroke-width="1"></rect>
        <text x="464" y="332" fill="#22ffaa" font-family="Inter, system-ui, sans-serif" font-size="16" font-weight="500" text-anchor="middle" dominant-baseline="middle">Free Talk · S2S</text>
      </g>
      <g>
        <rect x="564" y="314" width="132.8" height="36" rx="18" ry="18" fill="none" stroke="#ff2a93" stroke-width="1"></rect>
        <text x="630.4" y="332" fill="#ff2a93" font-family="Inter, system-ui, sans-serif" font-size="16" font-weight="500" text-anchor="middle" dominant-baseline="middle">Vision Talk</text>
      </g>
      <g>
        <rect x="712.8" y="314" width="185.60000000000002" height="36" rx="18" ry="18" fill="none" stroke="#b66bff" stroke-width="1"></rect>
        <text x="805.5999999999999" y="332" fill="#b66bff" font-family="Inter, system-ui, sans-serif" font-size="16" font-weight="500" text-anchor="middle" dominant-baseline="middle">Document Analysis</text>
      </g>
      <g>
        <rect x="914.4" y="314" width="159.20000000000002" height="36" rx="18" ry="18" fill="none" stroke="#ffe93a" stroke-width="1"></rect>
        <text x="994" y="332" fill="#ffe93a" font-family="Inter, system-ui, sans-serif" font-size="16" font-weight="500" text-anchor="middle" dominant-baseline="middle">Encrypted Chat</text>
      </g>
      <g>
        <rect x="1089.6" y="314" width="159.20000000000002" height="36" rx="18" ry="18" fill="none" stroke="#ff5577" stroke-width="1"></rect>
        <text x="1169.1999999999998" y="332" fill="#ff5577" font-family="Inter, system-ui, sans-serif" font-size="16" font-weight="500" text-anchor="middle" dominant-baseline="middle">Biometric Lock</text>
      </g>
      <g>
        <rect x="1264.8" y="314" width="141.60000000000002" height="36" rx="18" ry="18" fill="none" stroke="#22e0ff" stroke-width="1"></rect>
        <text x="1335.6" y="332" fill="#22e0ff" font-family="Inter, system-ui, sans-serif" font-size="16" font-weight="500" text-anchor="middle" dominant-baseline="middle">Hard Offline</text>
      </g>

  <rect x="380" y="372" width="380" height="2" fill="url(#accent-cyber)"></rect>

  <g font-family="JetBrains Mono, ui-monospace, monospace" font-size="14" letter-spacing="1.5">
    <text x="380" y="420" fill="#5a4a78">ANDROID 16+</text>
    <text x="540" y="420" fill="#5a4a78">· APACHE 2.0</text>
    <text x="700" y="420" fill="#5a4a78">· KOTLIN + COMPOSE</text>
    <text x="970" y="420" fill="#22ffaa">· 100% ON-DEVICE</text>
    <text x="1180" y="420" fill="#5a4a78">· OPEN SOURCE</text>
  </g>
</svg>