<?xml version="1.0" encoding="UTF-8"?>
<svg xmlns="http://www.w3.org/2000/svg" viewBox="0 0 1600 500" width="1600" height="500">
  <defs>
    <linearGradient id="bg-solar" x1="0" y1="0" x2="0" y2="1">
      <stop offset="0" stop-color="#0d0a08"></stop>
      <stop offset="1" stop-color="#1a0e08"></stop>
    </linearGradient>
    <pattern id="grid-solar" width="80" height="80" patternUnits="userSpaceOnUse">
      <path d="M 80 0 L 0 0 0 80" fill="none" stroke="rgba(180,140,100,0.06)" stroke-width="1"></path>
    </pattern>
    <radialGradient id="glow-solar" cx="0%" cy="100%" r="70%">
      <stop offset="0%" stop-color="#3a1a0a" stop-opacity="0.55"></stop>
      <stop offset="100%" stop-color="#3a1a0a" stop-opacity="0"></stop>
    </radialGradient>
    <linearGradient id="accent-solar" x1="0" y1="0" x2="1" y2="0">
      <stop offset="0" stop-color="#ff8a5c"></stop>
      <stop offset="1" stop-color="#ffd166"></stop>
    </linearGradient>
  </defs>

  <rect width="1600" height="500" fill="url(#bg-solar)"></rect>
  <rect width="1600" height="500" fill="url(#grid-solar)"></rect>
  <rect width="1600" height="500" fill="url(#glow-solar)"></rect>

  <g transform="translate(28,28) rotate(0)">
    <line x1="0" y1="0" x2="28" y2="0" stroke="#c97a3a" stroke-width="2"></line>
    <line x1="0" y1="0" x2="0" y2="28" stroke="#c97a3a" stroke-width="2"></line>
  </g>
  <g transform="translate(1572,28) rotate(90)">
    <line x1="0" y1="0" x2="28" y2="0" stroke="#c97a3a" stroke-width="2"></line>
    <line x1="0" y1="0" x2="0" y2="28" stroke="#c97a3a" stroke-width="2"></line>
  </g>
  <g transform="translate(28,472) rotate(270)">
    <line x1="0" y1="0" x2="28" y2="0" stroke="#c97a3a" stroke-width="2"></line>
    <line x1="0" y1="0" x2="0" y2="28" stroke="#c97a3a" stroke-width="2"></line>
  </g>
  <g transform="translate(1572,472) rotate(180)">
    <line x1="0" y1="0" x2="28" y2="0" stroke="#c97a3a" stroke-width="2"></line>
    <line x1="0" y1="0" x2="0" y2="28" stroke="#c97a3a" stroke-width="2"></line>
  </g>

  
    <g transform="translate(90,130) scale(1.2)">
      <polygon points="100,10 190,55 100,100 10,55" fill="#f4e8d8" stroke="#1a0e08" stroke-width="1.5" stroke-linejoin="miter"></polygon>
      <polygon points="10,55 100,100 100,210 10,165" fill="#3a2418" stroke="#1a0e08" stroke-width="1.5" stroke-linejoin="miter"></polygon>
      <polygon points="190,55 100,100 100,210 190,165" fill="#c4a07a" stroke="#1a0e08" stroke-width="1.5" stroke-linejoin="miter"></polygon>
    </g>

  <rect x="380" y="70" width="16" height="16" fill="#fff4e6"></rect><rect x="396" y="70" width="16" height="16" fill="#fff4e6"></rect><rect x="412" y="70" width="16" height="16" fill="#fff4e6"></rect><rect x="428" y="70" width="16" height="16" fill="#fff4e6"></rect><rect x="380" y="86" width="16" height="16" fill="#fff4e6"></rect><rect x="444" y="86" width="16" height="16" fill="#fff4e6"></rect><rect x="380" y="102" width="16" height="16" fill="#fff4e6"></rect><rect x="444" y="102" width="16" height="16" fill="#fff4e6"></rect><rect x="380" y="118" width="16" height="16" fill="#fff4e6"></rect><rect x="396" y="118" width="16" height="16" fill="#fff4e6"></rect><rect x="412" y="118" width="16" height="16" fill="#fff4e6"></rect><rect x="428" y="118" width="16" height="16" fill="#fff4e6"></rect><rect x="380" y="134" width="16" height="16" fill="#fff4e6"></rect><rect x="444" y="134" width="16" height="16" fill="#fff4e6"></rect><rect x="380" y="150" width="16" height="16" fill="#fff4e6"></rect><rect x="444" y="150" width="16" height="16" fill="#fff4e6"></rect><rect x="380" y="166" width="16" height="16" fill="#fff4e6"></rect><rect x="396" y="166" width="16" height="16" fill="#fff4e6"></rect><rect x="412" y="166" width="16" height="16" fill="#fff4e6"></rect><rect x="428" y="166" width="16" height="16" fill="#fff4e6"></rect><rect x="495.2" y="102" width="16" height="16" fill="#fff4e6"></rect><rect x="511.2" y="102" width="16" height="16" fill="#fff4e6"></rect><rect x="527.2" y="102" width="16" height="16" fill="#fff4e6"></rect><rect x="479.2" y="118" width="16" height="16" fill="#fff4e6"></rect><rect x="543.2" y="118" width="16" height="16" fill="#fff4e6"></rect><rect x="479.2" y="134" width="16" height="16" fill="#fff4e6"></rect><rect x="543.2" y="134" width="16" height="16" fill="#fff4e6"></rect><rect x="479.2" y="150" width="16" height="16" fill="#fff4e6"></rect><rect x="543.2" y="150" width="16" height="16" fill="#fff4e6"></rect><rect x="495.2" y="166" width="16" height="16" fill="#fff4e6"></rect><rect x="511.2" y="166" width="16" height="16" fill="#fff4e6"></rect><rect x="527.2" y="166" width="16" height="16" fill="#fff4e6"></rect><rect x="578.4" y="102" width="16" height="16" fill="#fff4e6"></rect><rect x="642.4" y="102" width="16" height="16" fill="#fff4e6"></rect><rect x="594.4" y="118" width="16" height="16" fill="#fff4e6"></rect><rect x="626.4" y="118" width="16" height="16" fill="#fff4e6"></rect><rect x="610.4" y="134" width="16" height="16" fill="#fff4e6"></rect><rect x="594.4" y="150" width="16" height="16" fill="#fff4e6"></rect><rect x="626.4" y="150" width="16" height="16" fill="#fff4e6"></rect><rect x="578.4" y="166" width="16" height="16" fill="#fff4e6"></rect><rect x="642.4" y="166" width="16" height="16" fill="#fff4e6"></rect>

  <text x="380" y="206" fill="#a8957e" font-family="Inter, system-ui, sans-serif" font-size="26" font-weight="400" dominant-baseline="hanging">Feature rich Privacy-focused fork of Google AI Edge Gallery</text>

  
      <g>
        <rect x="380" y="262" width="256" height="36" rx="18" ry="18" fill="none" stroke="#e8a878" stroke-width="1"></rect>
        <text x="508" y="280" fill="#e8a878" font-family="Inter, system-ui, sans-serif" font-size="16" font-weight="500" text-anchor="middle" dominant-baseline="middle">Hybrid LiteRT + llama.cpp</text>
      </g>
      <g>
        <rect x="652" y="262" width="168" height="36" rx="18" ry="18" fill="none" stroke="#f0c674" stroke-width="1"></rect>
        <text x="736" y="280" fill="#f0c674" font-family="Inter, system-ui, sans-serif" font-size="16" font-weight="500" text-anchor="middle" dominant-baseline="middle">GPU · CPU · NPU</text>
      </g>
      <g>
        <rect x="836" y="262" width="176.8" height="36" rx="18" ry="18" fill="none" stroke="#ff8a5c" stroke-width="1"></rect>
        <text x="924.4" y="280" fill="#ff8a5c" font-family="Inter, system-ui, sans-serif" font-size="16" font-weight="500" text-anchor="middle" dominant-baseline="middle">Stable Diffusion</text>
      </g>
      <g>
        <rect x="1028.8" y="262" width="132.8" height="36" rx="18" ry="18" fill="none" stroke="#ffd166" stroke-width="1"></rect>
        <text x="1095.2" y="280" fill="#ffd166" font-family="Inter, system-ui, sans-serif" font-size="16" font-weight="500" text-anchor="middle" dominant-baseline="middle">Whisper STT</text>
      </g>
      <g>
        <rect x="1177.6" y="262" width="132.8" height="36" rx="18" ry="18" fill="none" stroke="#e87a8a" stroke-width="1"></rect>
        <text x="1244" y="280" fill="#e87a8a" font-family="Inter, system-ui, sans-serif" font-size="16" font-weight="500" text-anchor="middle" dominant-baseline="middle">GGUF Import</text>
      </g>
  
      <g>
        <rect x="380" y="314" width="168" height="36" rx="18" ry="18" fill="none" stroke="#ff9e64" stroke-width="1"></rect>
        <text x="464" y="332" fill="#ff9e64" font-family="Inter, system-ui, sans-serif" font-size="16" font-weight="500" text-anchor="middle" dominant-baseline="middle">Free Talk · S2S</text>
      </g>
      <g>
        <rect x="564" y="314" width="132.8" height="36" rx="18" ry="18" fill="none" stroke="#d4a373" stroke-width="1"></rect>
        <text x="630.4" y="332" fill="#d4a373" font-family="Inter, system-ui, sans-serif" font-size="16" font-weight="500" text-anchor="middle" dominant-baseline="middle">Vision Talk</text>
      </g>
      <g>
        <rect x="712.8" y="314" width="185.60000000000002" height="36" rx="18" ry="18" fill="none" stroke="#e8b4a0" stroke-width="1"></rect>
        <text x="805.5999999999999" y="332" fill="#e8b4a0" font-family="Inter, system-ui, sans-serif" font-size="16" font-weight="500" text-anchor="middle" dominant-baseline="middle">Document Analysis</text>
      </g>
      <g>
        <rect x="914.4" y="314" width="159.20000000000002" height="36" rx="18" ry="18" fill="none" stroke="#f4a261" stroke-width="1"></rect>
        <text x="994" y="332" fill="#f4a261" font-family="Inter, system-ui, sans-serif" font-size="16" font-weight="500" text-anchor="middle" dominant-baseline="middle">Encrypted Chat</text>
      </g>
      <g>
        <rect x="1089.6" y="314" width="159.20000000000002" height="36" rx="18" ry="18" fill="none" stroke="#c97a4a" stroke-width="1"></rect>
        <text x="1169.1999999999998" y="332" fill="#c97a4a" font-family="Inter, system-ui, sans-serif" font-size="16" font-weight="500" text-anchor="middle" dominant-baseline="middle">Biometric Lock</text>
      </g>
      <g>
        <rect x="1264.8" y="314" width="141.60000000000002" height="36" rx="18" ry="18" fill="none" stroke="#ef6c5a" stroke-width="1"></rect>
        <text x="1335.6" y="332" fill="#ef6c5a" font-family="Inter, system-ui, sans-serif" font-size="16" font-weight="500" text-anchor="middle" dominant-baseline="middle">Hard Offline</text>
      </g>

  <rect x="380" y="372" width="380" height="2" fill="url(#accent-solar)"></rect>

  <g font-family="JetBrains Mono, ui-monospace, monospace" font-size="14" letter-spacing="1.5">
    <text x="380" y="420" fill="#6b5544">ANDROID 16+</text>
    <text x="540" y="420" fill="#6b5544">· APACHE 2.0</text>
    <text x="700" y="420" fill="#6b5544">· KOTLIN + COMPOSE</text>
    <text x="970" y="420" fill="#ffb86c">· 100% ON-DEVICE</text>
    <text x="1180" y="420" fill="#6b5544">· OPEN SOURCE</text>
  </g>
</svg>